<?xml version="1.0" ?><svg height="128" viewBox="0 0 128 128" width="128" xmlns="http://www.w3.org/2000/svg"><defs><style>.cls-1{fill:#79c651;}.cls-2,.cls-4{fill:none;stroke:#252d32;stroke-linecap:round;stroke-linejoin:round;stroke-width:3px;}.cls-2{stroke-dasharray:4 6;}.cls-3{fill:#ffc960;}.cls-5{fill:#252d32;}</style></defs><title/><g id="Icons"><path class="cls-1" d="M59,96c0-7,5.14-16.17,6-18-3.23,4.22-8.49,6.38-15.85,6.38A16,16,0,0,1,45,83.85l1-3.68L36.53,76C27.52,79.24,5,86.57,5,101.2V121H72.58S59,110,59,96Z"/><path class="cls-2" d="M78.86,8.43a52.28,52.28,0,0,1,38.83,78.86"/><circle class="cls-3" cx="86" cy="56" r="7"/><circle class="cls-3" cx="111" cy="59" r="4"/><circle class="cls-3" cx="96" cy="36" r="3"/><path class="cls-4" d="M50.75,5.56c-20.68-3.71-28.27,11.92-29.49,22-1,8.24-1.43,23.41-1.93,26.06-.69,3.61-6.73,20-4.66,26.07"/><path class="cls-4" d="M51,5.56c20.68-3.71,28.27,11.92,29.5,22,.58,4.78,1,11.89,1.29,17.54"/><path class="cls-4" d="M37.38,62.37c-4.54-4.59-7.88-11.11-7.88-17.73V33.5H55l2.21-6.62,5.54,6.62H70.5V44.64c0,9-6,17.87-13,21.87"/><path class="cls-4" d="M28.45,79.46C18.92,82.94,4.5,88.55,4.5,108.27V119.5"/><path class="cls-4" d="M53.5,46.5V44c0-3.61,2.46-5.45,4.25-5.45H63.5"/><line class="cls-4" x1="43.5" x2="38.5" y1="38.5" y2="38.5"/><circle class="cls-5" cx="41.01" cy="44.94" r="2.1"/><circle class="cls-5" cx="60.41" cy="44.94" r="2.1"/><path class="cls-4" d="M33,119.31c2.1-7.36,14-42.22,14-42.22s5.51-.62,9.43-8.42c2.67-5.33,3.18-7.28,3.42-9.47s-2.25-7-2.25-7c-1.46-1.67-3.28-1.63-5.09-.37a43.37,43.37,0,0,0-5.65,4.31c-.62.71-2.55,7.24-2.55,7.24"/><path class="cls-4" d="M39.17,60.85C38,62.59,38.75,71.9,38.75,71.9S24.66,95.89,15.1,112"/><path class="cls-3" d="M86.5,70A26.5,26.5,0,1,0,113,96.5,26.49,26.49,0,0,0,86.5,70Zm7.58,25L81.5,113.94,81,100.16,75.31,100l7.22-18h13.2L86.65,95Z"/><polyline class="cls-4" points="81.5 113.44 94.08 94.5 86.66 94.5 95.73 81.5 82.53 81.5 75.31 99.45 81.97 99.66"/><circle class="cls-4" cx="86.5" cy="96.5" r="27"/></g></svg>