<?xml version="1.0" ?><svg height="128" id="icons" viewBox="0 0 128 128" width="128" xmlns="http://www.w3.org/2000/svg"><defs><style>.cls-1{fill:#61c4f2;}.cls-2,.cls-3{fill:none;stroke-linecap:round;stroke-linejoin:round;stroke-width:3px;}.cls-2{stroke:#263357;}.cls-3{stroke:#f86464;}</style></defs><title/><path class="cls-1" d="M74.08,117C73,103.4,63.79,93.49,51.79,91.45c0,0-6.13,4.45-13.58,4.55l-1-3-10-5-2.45,3.45c-12,2-21.36,12-22.47,25.55Z"/><polyline class="cls-2" points="9.77 116.58 27.81 87.34 38.71 92.15 28.15 116.58"/><path class="cls-2" d="M35.05,79.67l2.66-4.52,4-4c2.14-1.36,4.48.38,5,4,0,0-1,10-5.92,12.56A7.35,7.35,0,0,0,37.88,91"/><path class="cls-2" d="M33.71,73.15a16.87,16.87,0,0,0-4.41,6.52c-.25.93,1.23,3.14,1.41,4.48A10.41,10.41,0,0,1,30,88.27"/><path class="cls-2" d="M85.24,62.55c6,5.78,15.47,4.79,20.36,0,11.06,2,17.89,10.22,18.61,19.75a45.49,45.49,0,0,1-28.8,10.32,66.07,66.07,0,0,1-16.36-2.75"/><path class="cls-2" d="M85.43,62.56a23.11,23.11,0,0,0-13.11,7"/><line class="cls-2" x1="86.5" x2="89.5" y1="38.5" y2="38.5"/><line class="cls-2" x1="100.5" x2="103.5" y1="38.5" y2="38.5"/><path class="cls-2" d="M91.22,51.39a6.83,6.83,0,0,1,8.86,0"/><line class="cls-2" x1="111.5" x2="111.5" y1="89.5" y2="79.5"/><path class="cls-2" d="M74.9,61a44.52,44.52,0,0,1-3.32-13.86c-.1-1.51-.88-14.86,5.38-25,0,0,3-4.72,6.47-7a24.91,24.91,0,0,1,10.34-4,21.18,21.18,0,0,1,3.12,0,21.92,21.92,0,0,1,10.82,4c13,9.53,11.83,30.09,11.69,32a45,45,0,0,1-5.12,17.71"/><path class="cls-2" d="M92.47,32.46c.93,0,1.88.06,2.86,0a71.31,71.31,0,0,0,10.26-.67c.44-1.51.88-3,1.33-4.54a22.46,22.46,0,0,1,3.91,12.93,19.38,19.38,0,0,1-2.91,10.35c-2.57,4-7.49,8.32-12.59,8.51-5.1-.19-10-4.47-12.59-8.51a19.43,19.43,0,0,1-2.9-10.35,22.55,22.55,0,0,1,3.9-12.93c.46,1.52.9,3,1.33,4.54,1.32.19,2.73.34,4.21.46"/><polyline class="cls-2" points="89.19 32.3 92.37 27.3 92.47 32.46"/><path class="cls-2" d="M21.46,69.64c-.54-1.46-2.41-.56-3.84-4-2.09-5,1.85-6.61,3.49-5.82"/><line class="cls-2" x1="30.5" x2="34.5" y1="64.5" y2="64.5"/><line class="cls-2" x1="48.5" x2="44.5" y1="64.5" y2="64.5"/><path class="cls-2" d="M54.63,42.11C46,30.8,24.75,33.72,21.19,48.66c-.24,1-1.37,7.72,1,12.75a21.64,21.64,0,0,0,1.94,3c.07.09.38-4.46,1.13-7.44a31.37,31.37,0,0,1,1.48-4.43,76.26,76.26,0,0,1,12.67,4.16A75.89,75.89,0,0,1,52.1,52.57c.52,1.25,3.61,6.58,3.61,12.58s-1.08,9.49-5,16"/><line class="cls-3" x1="80.04" x2="53.43" y1="116.5" y2="21.67"/><line class="cls-3" x1="13.77" x2="23.41" y1="74.93" y2="77.07"/><line class="cls-3" x1="14.22" x2="23.41" y1="85.26" y2="82.97"/><path class="cls-2" d="M62.92,95.49A25.68,25.68,0,0,0,52.45,91.1S46.89,95.87,39.67,96a17.27,17.27,0,0,1-2.05-.1"/><path class="cls-2" d="M24.23,91.1A26.81,26.81,0,0,0,2.35,115.75"/></svg>