<?xml version="1.0" ?><svg height="128" viewBox="0 0 128 128" width="128" xmlns="http://www.w3.org/2000/svg"><defs><style>.cls-1{fill:#ffc960;}.cls-2,.cls-3,.cls-5{fill:none;stroke-linecap:round;stroke-linejoin:round;stroke-width:3px;}.cls-2{stroke:#252d32;}.cls-3{stroke:#79c651;}.cls-4{fill:#252d32;}.cls-5{stroke:#ffc960;}.cls-6{fill:#79c651;}</style></defs><title/><g id="Icons"><path class="cls-1" d="M39.52,89H2V78.93A20,20,0,0,1,22,59c1.74,5.11,7.52,6.74,11.84,4.9,2-.87,6.59-.83,6.59-.83l1.2-3.85A21.63,21.63,0,0,1,51,62.69L41.26,87.83A1.87,1.87,0,0,1,39.52,89Z"/><path class="cls-2" d="M23.91,51.05l-.07,1.86c0,4.13-3.28,5.51-7.08,6.88C11,61.86,2.5,65.43,2.5,77.12V88.5"/><path class="cls-2" d="M43.07,41a14.36,14.36,0,0,0,.43-3.45v-7"/><path class="cls-2" d="M40.05,23.3c-9.92,5-23.55,7.44-23.55,7.44v6.81c0,5.14,3,10.13,6.73,13.11"/><path class="cls-2" d="M8.5,56.52c-2.07-6.21-2.18-11.37-.11-18.61,1.31-4.6,2.07-5.18,1.08-12.22-.88-6.22,4.3-12.33,8.1-14.69,3.65-2.26,13.07-5.38,19.33-.37"/><path class="cls-2" d="M52,37.91c-1.31-4.6-2.07-5.18-1.08-12.22a12.09,12.09,0,0,0-.22-4.49c-1.13-5.14-5.05-11.31-13.8-10.57"/><line class="cls-3" x1="78.5" x2="32.91" y1="6.5" y2="124.45"/><path class="cls-4" d="M24.34,36.79a1.47,1.47,0,1,0,1.47,1.46A1.46,1.46,0,0,0,24.34,36.79Z"/><path class="cls-4" d="M36.34,36.79a1.47,1.47,0,1,0,1.47,1.46A1.46,1.46,0,0,0,36.34,36.79Z"/><path class="cls-2" d="M37.43,33.24a20.91,20.91,0,0,0-3.56,0c-1.11.13-2.37,1.3-2.37,3.56v2.7"/><line class="cls-2" x1="25.5" x2="22.5" y1="33.5" y2="33.5"/><line class="cls-5" x1="49.5" x2="57.5" y1="43.5" y2="43.5"/><line class="cls-5" x1="49.5" x2="54.5" y1="50.5" y2="53.5"/><polyline class="cls-2" points="44.5 74.5 41.89 62.6 31.3 62.98 35.5 88.5"/><path class="cls-2" d="M37.35,52.4l-2.06-8.3c-1.31-1.83-5.2.69-5.2,1.88,0,0-1.58,8.24,1.64,12,.93,1.08,1.12,3.4,1.21,4.47"/><path class="cls-2" d="M41.4,49.66a15,15,0,0,1,1,6.55c-.1.85-1.27,1.5-1.87,2.55A5.34,5.34,0,0,0,40,61.51"/><path class="cls-2" d="M66.5,59.5a3,3,0,0,0-3,3.35l.08.79a3.69,3.69,0,0,0,3.66,3.27"/><path class="cls-1" d="M88.19,100h.29s1.47-1.19,1.3-2.06l-.48-2.56A2,2,0,0,0,88,94H84.06a2,2,0,0,0-1.3,1.38l-.49,2.56c-.16.87,1.31,2.06,1.31,2.06h.29l-2.24,10s3.27,4.57,4.11,4.57c2.93-.69,3.75-2.69,4.76-4.57Z"/><path class="cls-2" d="M104.5,59.5h.63a3,3,0,0,1,3,3.35l-.09.79a3.68,3.68,0,0,1-3.66,3.27"/><path class="cls-6" d="M86,114s12-4,13.91-23.69a38.57,38.57,0,0,0,5,2.1c13,4.66,20,10.92,20,24.13V125H47v-8.46c0-13.21,7-19.47,20-24.13a39.37,39.37,0,0,0,5-2.08C73,108,86,114,86,114Z"/><path class="cls-2" d="M95.5,81.5v.82c0,5.75,4.61,7.68,10,9.59,13,4.66,20,10.92,20,24.13v8.46h-79V116c0-13.21,7-19.47,20-24.13,5.34-1.91,10-3.84,10-9.59V81.5"/><path class="cls-2" d="M82.92,75.61a11.5,11.5,0,0,0,7.4,0"/><path class="cls-2" d="M85.5,69.5h.71a2.3,2.3,0,0,0,2.29-2.29V61.89c0-2.94,1.12-4.47,2.57-4.51.9,0,4.37,0,4.37,0"/><path class="cls-2" d="M103.5,47.5V66.05c0,10.57-10.26,18.59-17.93,18.59S68.5,76.31,68.5,65.74V56.5"/><path class="cls-2" d="M97.06,87.7a12.91,12.91,0,0,1-11.15,5.8h-.33a12.92,12.92,0,0,1-11-5.6"/><line class="cls-2" x1="81.5" x2="76.5" y1="57.5" y2="57.5"/><path class="cls-4" d="M79.17,60.78a1.65,1.65,0,1,0,1.65,1.65A1.65,1.65,0,0,0,79.17,60.78Z"/><path class="cls-4" d="M93.94,60.78a1.65,1.65,0,1,0,1.65,1.65A1.65,1.65,0,0,0,93.94,60.78Z"/><path class="cls-2" d="M99.77,89.55c-1.55,19.61-13.65,25-13.65,25C75.25,108,72.53,95.6,72,89.69"/><path class="cls-2" d="M108.32,55.83c1.35-4.3.71-7.59-.41-11.53"/><path class="cls-2" d="M68.5,56.5s1.18-10.2,9.68-11.42,28.31,12,31.35-8.65"/><path class="cls-2" d="M108.92,36.43c-6.68,0-8.5-5.46-17.61-7.28C79.34,26.75,75.52,34,75.52,34"/><line class="cls-2" x1="63.5" x2="63.5" y1="116.5" y2="123.5"/><line class="cls-2" x1="107.5" x2="107.5" y1="116.5" y2="123.5"/></g></svg>