<?xml version="1.0" ?><svg viewBox="0 0 96 96" xmlns="http://www.w3.org/2000/svg"><defs><style>.cls-1{fill:#ffc28f;}.cls-2{opacity:0.3;}.cls-3{fill:#464965;}.cls-4{fill:#48e5a2;}.cls-5{fill:#fff;}.cls-6{opacity:0.4;}</style></defs><title/><g id="healthcare"><path class="cls-1" d="M4,74,34.35,85.2a27.54,27.54,0,0,0,18.06,0L89.92,72a3.1,3.1,0,0,0,1.89-4h0a9.33,9.33,0,0,0-11.76-5.6L49,73l17.38-5.89A2.68,2.68,0,0,0,68,63.58h0a10.63,10.63,0,0,0-13.12-6.14L42.83,61.35a16.46,16.46,0,0,1-10.2,0L4,51.45"/><g class="cls-2"><path class="cls-3" d="M91.22,66.77a3.12,3.12,0,0,1-1.3.89L52.41,80.78a27.48,27.48,0,0,1-18.06,0L4,69.57V74L34.35,85.2a27.54,27.54,0,0,0,18.06,0L89.92,72a3.1,3.1,0,0,0,1.89-4A9.85,9.85,0,0,0,91.22,66.77Z"/></g><path class="cls-3" d="M76.49,78.24A1.5,1.5,0,0,1,76,75.32l13.43-4.69a1.65,1.65,0,0,0,.92-.84,1.59,1.59,0,0,0,.05-1.23,7.79,7.79,0,0,0-9.87-4.7L67.24,68.38c-.12.06-.24.1-.37.15L49.5,74.42a1.5,1.5,0,1,1-1-2.84h0l17.56-6a1.17,1.17,0,0,0,.5-.53,1.2,1.2,0,0,0,0-.93,9.15,9.15,0,0,0-11.27-5.27l-12.06,3.9a17.8,17.8,0,0,1-11.13,0L3.52,52.87A1.5,1.5,0,1,1,4.5,50l28.62,9.87a14.82,14.82,0,0,0,9.24,0L54.43,56a12.14,12.14,0,0,1,15,7,4,4,0,0,1,.3,1.36L79.57,61a10.77,10.77,0,0,1,13.64,6.5,4.52,4.52,0,0,1-.15,3.55,4.57,4.57,0,0,1-2.64,2.39L77,78.16A1.74,1.74,0,0,1,76.49,78.24Z"/><path class="cls-3" d="M70.69,80.27a1.52,1.52,0,0,1-1.07-.44,1.34,1.34,0,0,1-.32-.49,1.39,1.39,0,0,1-.12-.57,1.36,1.36,0,0,1,0-.29,1.69,1.69,0,0,1,.41-.77,1.55,1.55,0,0,1,2.12,0,1.53,1.53,0,0,1,.45,1.06,1.39,1.39,0,0,1-.12.57,1.25,1.25,0,0,1-.33.49A1.49,1.49,0,0,1,70.69,80.27Z"/><path class="cls-3" d="M43.32,88.2a29.12,29.12,0,0,1-9.46-1.58L3.49,75.36a1.5,1.5,0,1,1,1-2.81L34.87,83.8a26.12,26.12,0,0,0,17,0l12.68-4.44a1.51,1.51,0,0,1,1.92.92,1.5,1.5,0,0,1-.93,1.91L52.9,86.58A29,29,0,0,1,43.32,88.2Z"/><path class="cls-4" d="M63.46,37.16,51.9,47a6,6,0,0,1-7.79,0L32.55,37.16a6,6,0,0,1-2.11-4.57V15.3a6,6,0,0,1,6-6H59.57a6,6,0,0,1,6,6V32.59A6,6,0,0,1,63.46,37.16Z"/><polygon class="cls-5" points="56.79 22.78 56.79 29.51 51.36 29.51 51.36 34.93 44.64 34.93 44.64 29.51 39.22 29.51 39.22 22.78 44.64 22.78 44.64 17.37 51.36 17.37 51.36 22.78 56.79 22.78"/><g class="cls-2"><path class="cls-3" d="M42.7,45.8S66.63,38.91,59.57,9.29c0,0,6.91.21,6,9.21L65.4,34,49.34,48.44Z"/></g><g class="cls-6"><path class="cls-5" d="M35.77,33.29V18.52a4.14,4.14,0,0,1,4.14-4.14H65.49s0-5.09-7.61-5.09H35.77s-5.33.57-5.33,8.08V34l.9,1A2.54,2.54,0,0,0,35.77,33.29Z"/></g><path class="cls-3" d="M48,50a7.49,7.49,0,0,1-4.86-1.8l-5.77-4.92A1.5,1.5,0,1,1,39.31,41l5.77,4.91a4.5,4.5,0,0,0,5.85,0L62.49,36a4.53,4.53,0,0,0,1.58-3.43V15.3a4.51,4.51,0,0,0-4.5-4.51H36.44a4.51,4.51,0,0,0-4.5,4.51V32.59A4.49,4.49,0,0,0,33.52,36l1.59,1.35a1.5,1.5,0,0,1-1.94,2.29L31.58,38.3a7.48,7.48,0,0,1-2.64-5.71V15.3a7.51,7.51,0,0,1,7.5-7.51H59.57a7.51,7.51,0,0,1,7.5,7.51V32.59a7.48,7.48,0,0,1-2.64,5.71L52.87,48.15A7.5,7.5,0,0,1,48,50Z"/><path class="cls-3" d="M51.36,36.43H44.64a1.5,1.5,0,0,1-1.5-1.5V31H39.22a1.51,1.51,0,0,1-1.5-1.5V22.78a1.5,1.5,0,0,1,1.5-1.5h3.92V17.37a1.5,1.5,0,0,1,1.5-1.5h6.72a1.5,1.5,0,0,1,1.5,1.5v3.91h3.93a1.5,1.5,0,0,1,1.5,1.5v6.73a1.5,1.5,0,0,1-1.5,1.5H52.86v3.92A1.5,1.5,0,0,1,51.36,36.43Zm-5.22-3h3.72V29.51a1.5,1.5,0,0,1,1.5-1.5h3.93V24.28H51.36a1.5,1.5,0,0,1-1.5-1.5V18.87H46.14v3.91a1.5,1.5,0,0,1-1.5,1.5H40.72V28h3.92a1.5,1.5,0,0,1,1.5,1.5Z"/></g></svg>