<?xml version="1.0" ?><svg style="enable-background:new 0 0 512 512;" version="1.1" viewBox="0 0 512 512" xml:space="preserve" xmlns="http://www.w3.org/2000/svg" xmlns:xlink="http://www.w3.org/1999/xlink"><g id="_x31_2_x2C__hand_wash_x2C__healthcare_x2C__wash_x2C__washing_x2C__water"><g id="XMLID_3173_"><path d="M463.5,186c0,9.5-4.42,17.96-11.31,23.46c3.99,6.21,6.31,13.6,6.31,21.54    c0,22.09-17.91,40-40,40c-3.47,0-6.84-0.45-10.04-1.28c-0.67-10.569-9.77-18.72-20.44-18.72H373.5c0-11.05-8.95-20-20-20h20    c11.29,0,20.39-9.35,19.99-20.73c-0.39-10.84-9.62-19.27-20.47-19.27H353.5c11.29,0,20.39-9.35,19.99-20.73    c-0.39-10.84-9.62-19.27-20.47-19.27h-23.68c2.71-16.17,11.9-30.14,24.8-39.18c4.58,5.6,11.55,9.18,19.36,9.18    c11.84,0,21.75-8.22,24.33-19.27c28.38,4.43,50.17,28.76,50.64,58.28C457.45,165.19,463.5,174.89,463.5,186z" id="XMLID_3243_" style="fill:#99E6FC;"/><path d="M433.5,411c11.05,0,20,8.95,20,20s-8.95,20-20,20s-20-8.95-20-20    S422.45,411,433.5,411z" id="XMLID_547_" style="fill:#70F2A4;"/><circle cx="88.5" cy="81" id="XMLID_546_" r="30" style="fill:#70F2A4;"/><path d="M413.5,156c8.28,0,15,6.72,15,15s-6.72,15-15,15s-15-6.72-15-15    S405.22,156,413.5,156z" id="XMLID_545_" style="fill:#9BD8F9;"/><path d="M354.14,111.82c-3.53-4.31-5.64-9.82-5.64-15.82c0-13.81,11.19-25,25-25    s25,11.19,25,25c0,1.97-0.23,3.89-0.67,5.73C395.25,112.78,385.34,121,373.5,121C365.69,121,358.72,117.42,354.14,111.82z" id="XMLID_544_" style="fill:#9BD8F9;"/><path d="M353.5,191h19.52c10.85,0,20.08,8.43,20.47,19.27c0.4,11.38-8.7,20.73-19.99,20.73    h-20c11.05,0,20,8.95,20,20h-75c22.079,0,40-17.919,40-40h-75.3c-9.25,0-17.97,4.36-23.52,11.76l-12.36,16.48    c-5.55,7.4-14.27,11.76-23.52,11.76h-90.3v60h-35V151h90.3c9.25,0,17.97-4.36,23.52-11.76l12.36-16.48    c5.55-7.4,14.27-11.76,23.52-11.76h75.3c0,22.079-17.919,40-40,40c11.23,0,82.061,0,89.52,0c10.85,0,20.08,8.43,20.47,19.27    C373.89,181.65,364.79,191,353.5,191z" id="XMLID_543_" style="fill:#FFBD86;"/><path d="M388.5,291h19.52c10.85,0,20.08,8.43,20.47,19.27    c0.4,11.381-8.7,20.73-19.99,20.73h-20c11.29,0,20.39,9.35,19.99,20.73c-0.39,10.84-9.62,19.27-20.47,19.27H348.5    c11.29,0,20.39,9.35,19.99,20.73c-0.39,10.84-9.62,19.27-20.47,19.27H248.5h-40h-95V311v-60h90.3c9.25,0,17.97-4.36,23.52-11.76    l12.36-16.48c5.55-7.4,14.27-11.76,23.52-11.76h75.3c0,11.04-4.48,21.04-11.72,28.28c-7.24,7.24-17.24,11.72-28.28,11.72h75h14.52    c10.67,0,19.77,8.15,20.44,18.72c0.01,0.181,0.02,0.37,0.03,0.55C408.89,281.65,399.79,291,388.5,291z" id="XMLID_542_" style="fill:#FED2A4;"/><circle cx="456" cy="368.5" id="XMLID_541_" r="7.5"/><circle cx="446" cy="58.5" id="XMLID_540_" r="7.5"/><circle cx="341" cy="463.5" id="XMLID_539_" r="7.5"/><circle cx="256" cy="48.5" id="XMLID_538_" r="7.5"/><circle cx="156" cy="98.5" id="XMLID_537_" r="7.5"/><circle cx="116" cy="453.5" id="XMLID_536_" r="7.5"/><circle cx="51" cy="363.5" id="XMLID_535_" r="7.5"/><path d="M348.5,376h-40c-2.761,0-5-2.238-5-5s2.239-5,5-5h40c2.761,0,5,2.238,5,5S351.261,376,348.5,376z" id="XMLID_534_"/><path d="M388.5,336h-60c-2.761,0-5-2.238-5-5s2.239-5,5-5h60c2.761,0,5,2.238,5,5S391.261,336,388.5,336z" id="XMLID_533_"/><path d="M388.5,296h-60c-2.761,0-5-2.238-5-5s2.239-5,5-5h60c2.761,0,5,2.238,5,5S391.261,296,388.5,296z" id="XMLID_532_"/><path d="M353.5,196h-60c-2.761,0-5-2.239-5-5s2.239-5,5-5h60c2.761,0,5,2.239,5,5S356.261,196,353.5,196z" id="XMLID_531_"/><path d="M329.346,156.001c-0.274,0-0.553-0.023-0.832-0.07c-2.723-0.457-4.561-3.034-4.105-5.758    c2.851-17.011,12.642-32.483,26.862-42.448c0.841-0.589,1.843-0.905,2.87-0.905c2.761,0,5.005,2.239,5.005,5    c0,1.773-0.921,3.332-2.312,4.219c-11.945,8.441-20.163,21.472-22.562,35.788C333.861,154.27,331.744,156.001,329.346,156.001z" id="XMLID_530_"/><path d="M418.5,276c-3.771,0-7.532-0.475-11.181-1.411c-2.214-0.516-3.87-2.5-3.87-4.869c0-2.762,2.229-5,4.99-5    h0.02c0.423,0,0.845,0.054,1.255,0.16c2.865,0.743,5.821,1.12,8.785,1.12c19.299,0,35-15.701,35-35    c0-6.707-1.908-13.221-5.517-18.837c-1.386-2.156-0.916-5.011,1.087-6.61c5.992-4.783,9.429-11.91,9.429-19.552    c0-8.902-4.8-17.202-12.528-21.659c-1.523-0.879-2.473-2.493-2.501-4.251c-0.427-26.822-19.946-49.288-46.412-53.419    c-2.729-0.426-4.595-2.983-4.169-5.711c0.426-2.729,2.986-4.598,5.711-4.169c30.385,4.743,53.024,29.923,54.768,60.408    c9.398,6.496,15.13,17.288,15.13,28.802c0,9.244-3.587,17.945-9.968,24.458c3.261,6.328,4.968,13.35,4.968,20.542    C463.5,255.814,443.313,276,418.5,276z" id="XMLID_529_"/><path d="M373.5,126c-9.038,0-17.505-4.015-23.23-11.015c-4.364-5.329-6.77-12.072-6.77-18.985    c0-16.542,13.458-30,30-30s30,13.458,30,30c0,2.335-0.272,4.653-0.807,6.893C399.519,116.487,387.512,126,373.5,126z M373.5,76    c-11.028,0-20,8.972-20,20c0,4.676,1.559,9.051,4.508,12.651c3.82,4.671,9.466,7.349,15.492,7.349    c9.34,0,17.343-6.335,19.461-15.407c0.36-1.505,0.539-3.041,0.539-4.593C393.5,84.972,384.528,76,373.5,76z" id="XMLID_3189_"/><path d="M348.02,416H113.5c-2.761,0-5-2.238-5-5V251c0-2.761,2.239-5,5-5h90.3c7.64,0,14.936-3.648,19.52-9.76    l12.36-16.48c6.462-8.616,16.749-13.76,27.52-13.76h75.3c2.761,0,5,2.239,5,5c0,12.015-4.683,23.314-13.185,31.815    c-1.13,1.13-2.309,2.192-3.532,3.185h61.237c13.428,0,24.598,10.28,25.43,23.403l0.032,0.581c0.003,0.036,0.004,0.073,0.005,0.109    c0.204,5.81-1.55,11.356-4.983,15.91c13.571,0.244,24.502,10.735,24.983,24.086c0.241,6.86-2.245,13.349-6.999,18.273    c-4.753,4.923-11.139,7.635-17.98,7.637c3.431,4.554,5.184,10.098,4.98,15.906C413.001,365.419,401.815,376,388.02,376h-19.513    c3.431,4.554,5.184,10.098,4.98,15.906C373.001,405.419,361.815,416,348.02,416z M118.5,406h229.52    c8.245,0,15.187-6.482,15.474-14.449c0.145-4.116-1.347-8.014-4.2-10.969C356.44,377.627,352.607,376,348.5,376    c-2.761,0-5-2.238-5-5s2.239-5,5-5h39.52c8.245,0,15.187-6.482,15.474-14.449c0.145-4.116-1.347-8.014-4.2-10.969    C396.44,337.627,392.607,336,388.5,336c-2.761,0-5-2.238-5-5s2.239-5,5-5h20c4.107,0,7.94-1.627,10.793-4.582    c2.853-2.955,4.345-6.853,4.2-10.973C423.207,302.482,416.265,296,408.02,296H388.5c-2.761,0-5-2.238-5-5s2.239-5,5-5    c4.107,0,7.94-1.627,10.793-4.582c2.842-2.944,4.334-6.823,4.202-10.927l-0.027-0.488C402.971,262.165,396.185,256,388.02,256    H298.5c-2.761,0-5-2.238-5-5c0-2.761,2.239-5,5-5c9.343,0,18.131-3.642,24.744-10.256c5.419-5.418,8.843-12.296,9.903-19.744    H263.2c-7.64,0-14.936,3.648-19.52,9.76l-12.36,16.48C224.858,250.856,214.57,256,203.8,256h-85.3V406z" id="XMLID_3186_"/><path d="M113.5,316h-35c-2.761,0-5-2.238-5-5V151c0-2.761,2.239-5,5-5h90.3c7.64,0,14.936-3.648,19.52-9.76    l12.36-16.48c6.462-8.616,16.749-13.76,27.52-13.76h75.3c2.761,0,5,2.239,5,5c0,12.015-4.683,23.314-13.185,31.815    c-1.13,1.13-2.309,2.192-3.532,3.185h61.237c13.795,0,24.981,10.581,25.467,24.09c0.205,5.813-1.55,11.36-4.983,15.914    c13.571,0.244,24.502,10.735,24.983,24.086c0.241,6.86-2.245,13.348-6.999,18.273C386.733,233.288,380.345,236,373.5,236h-0.012    c3.145,4.181,5.012,9.377,5.012,15c0,2.762-2.239,5-5,5s-5-2.238-5-5c0-8.271-6.729-15-15-15c-2.761,0-5-2.239-5-5s2.239-5,5-5h20    c4.107,0,7.94-1.627,10.793-4.583c2.853-2.955,4.345-6.852,4.2-10.972C388.207,202.482,381.265,196,373.02,196H353.5    c-2.761,0-5-2.239-5-5s2.239-5,5-5c4.107,0,7.94-1.627,10.793-4.583c2.853-2.955,4.345-6.852,4.2-10.972    C368.207,162.482,361.265,156,353.02,156H263.5c-2.761,0-5-2.239-5-5s2.239-5,5-5c9.344,0,18.131-3.642,24.744-10.256    c5.419-5.418,8.843-12.296,9.903-19.744H228.2c-7.64,0-14.936,3.648-19.52,9.76l-12.36,16.48    C189.858,150.856,179.57,156,168.8,156H83.5v150h30c2.761,0,5,2.238,5,5S116.261,316,113.5,316z" id="XMLID_524_"/><path d="M413.5,191c-11.028,0-20-8.972-20-20s8.972-20,20-20s20,8.972,20,20S424.528,191,413.5,191z M413.5,161    c-5.514,0-10,4.486-10,10s4.486,10,10,10s10-4.486,10-10S419.014,161,413.5,161z" id="XMLID_3182_"/><path d="M433.5,456c-13.785,0-25-11.215-25-25s11.215-25,25-25s25,11.215,25,25S447.285,456,433.5,456z     M433.5,416c-8.271,0-15,6.728-15,15s6.729,15,15,15s15-6.728,15-15S441.771,416,433.5,416z" id="XMLID_3179_"/><path d="M88.5,116c-19.299,0-35-15.701-35-35s15.701-35,35-35s35,15.701,35,35S107.799,116,88.5,116z M88.5,56    c-13.785,0-25,11.215-25,25s11.215,25,25,25s25-11.215,25-25S102.285,56,88.5,56z" id="XMLID_3176_"/><path d="M183.5,376h-40c-2.761,0-5-2.238-5-5s2.239-5,5-5h40c2.761,0,5,2.238,5,5S186.261,376,183.5,376z" id="XMLID_517_"/><path d="M233.5,376h-30c-2.761,0-5-2.238-5-5s2.239-5,5-5h30c2.761,0,5,2.238,5,5S236.261,376,233.5,376z" id="XMLID_516_"/></g></g><g id="Layer_1"/></svg>