<?xml version="1.0" ?><svg viewBox="0 0 96 96" xmlns="http://www.w3.org/2000/svg"><defs><style>.cls-1{fill:#92cbff;}.cls-2{opacity:0.4;}.cls-3{fill:#fff;}.cls-4{fill:#ffc28f;}.cls-5{fill:#464965;}.cls-6{opacity:0.3;}</style></defs><title/><g data-name="Washing Hand" id="Washing_Hand"><path class="cls-1" d="M34.54,81s8.29,12.73,20.55,2.24c0,0,10.83,4.52,12.17-5.07,0,0,8.95.78,10.82-6,0,0,2.06-5,0-7.26Z"/><path class="cls-1" d="M56.93,79.08c-8.46,7.24-15,3.43-18.29.37L34.54,81s8.29,12.73,20.55,2.24c0,0,10.69,4.46,12.14-4.9C63.74,81.93,56.93,79.08,56.93,79.08Z"/><path class="cls-1" d="M69.09,74a7.67,7.67,0,0,1-1.71,4.14c1,.06,9,.32,10.7-6.05a14.53,14.53,0,0,0,.48-1.46C75.44,74.55,69.09,74,69.09,74Z"/><g class="cls-2"><path class="cls-3" d="M56.93,79.08c-8.46,7.24-15,3.43-18.29.37L34.54,81s8.29,12.73,20.55,2.24c0,0,10.69,4.46,12.14-4.9C63.74,81.93,56.93,79.08,56.93,79.08Z"/><path class="cls-3" d="M69.09,74a7.67,7.67,0,0,1-1.71,4.14c1,.06,9,.32,10.7-6.05a14.53,14.53,0,0,0,.48-1.46C75.44,74.55,69.09,74,69.09,74Z"/></g><path class="cls-4" d="M7.68,61.38,4.14,46.72a5.06,5.06,0,0,1,4-6.15l14.14-2.71S26,21.68,35.17,14.33A3.13,3.13,0,0,1,40,15.55h0A6.16,6.16,0,0,1,39,22a31.93,31.93,0,0,0-3.65,5.14,2.49,2.49,0,0,0,3.68,3.16C44.73,26.11,54.2,19.2,59.28,16a3.82,3.82,0,0,1,5.34,1.29L66,19.57l-9,7,12.8-9.88a3,3,0,0,1,4.14.45h0a3,3,0,0,1-.37,4.29l-13,11L72.76,22.13l1.74,2.34a4.62,4.62,0,0,1-.83,6.36L60,41.89l7.93-6.29L69,37.24a5.42,5.42,0,0,1-1.28,7.4L54.62,54.7a20.44,20.44,0,0,1-8.21,3.63,17.82,17.82,0,0,1-7.13-.28c-4.4-.95-17.37,3.85-24.81,6.84A5,5,0,0,1,7.68,61.38Z"/><path class="cls-5" d="M12.75,66.83a6.73,6.73,0,0,1-3-.73,6.62,6.62,0,0,1-3.39-4.33L2.76,46.94a6.61,6.61,0,0,1,5.18-8l3.87-.75a1.5,1.5,0,0,1,.57,3l-3.88.74a3.59,3.59,0,0,0-2.35,1.59,3.55,3.55,0,0,0-.47,2.8L9.25,61.07a3.6,3.6,0,0,0,4.84,2.5,1.5,1.5,0,1,1,1.12,2.78A6.57,6.57,0,0,1,12.75,66.83Z"/><path class="cls-5" d="M14.65,66.46a1.5,1.5,0,0,1-.56-2.89c2.28-.91,4.49-1.77,6.58-2.53a1.5,1.5,0,1,1,1,2.81c-2.06.76-4.24,1.6-6.49,2.5A1.36,1.36,0,0,1,14.65,66.46Z"/><path class="cls-5" d="M21.19,64A1.5,1.5,0,0,1,20.67,61c14.83-5.44,18.25-4.7,19.38-4.45a16.5,16.5,0,0,0,6.6.26,19.12,19.12,0,0,0,7.7-3.4L67.59,43.31a4,4,0,0,0,1-5.46l-.21-.32-6.76,5.36a1.5,1.5,0,0,1-1.87-2.35L73.55,29.36a1.5,1.5,0,0,1,1.88,2.34l-4.8,3.87.41.61a7,7,0,0,1-1.65,9.53L56.16,55.85a22.24,22.24,0,0,1-8.94,3.95,19.73,19.73,0,0,1-7.86-.29c-1.33-.29-5.47-.13-17.66,4.34A1.32,1.32,0,0,1,21.19,64Z"/><path class="cls-5" d="M18.68,39.88a1.5,1.5,0,0,1-.28-3l2.89-.55c1-3.7,5-17,13.34-23.67a4.66,4.66,0,0,1,7.18,1.82,7.76,7.76,0,0,1-1.19,8.08,29.77,29.77,0,0,0-3.51,4.93.94.94,0,0,0,.22,1.22,1,1,0,0,0,1.29.06c5.42-4,15.29-11.21,20.52-14.53a5.37,5.37,0,0,1,7.5,1.8l.55.93,2.48-1.91a4.56,4.56,0,0,1,5.69,7.12L62.18,33.29A1.5,1.5,0,1,1,60.25,31l12.36-10.4.07-.06.75-.63a1.55,1.55,0,0,0,.19-2.21,1.56,1.56,0,0,0-2.13-.23l-12.93,10a1.5,1.5,0,1,1-1.84-2.37l8-6.28-.71-1.2a2.38,2.38,0,0,0-3.31-.8c-5.16,3.27-15,10.43-20.35,14.41a4,4,0,0,1-5.93-5.12,32.92,32.92,0,0,1,3.87-5.45,4.76,4.76,0,0,0,.72-4.94,1.68,1.68,0,0,0-1.14-1,1.65,1.65,0,0,0-1.41.3C27.79,22,24,37.82,24,38a1.48,1.48,0,0,1-1.17,1.13L19,39.85A1.43,1.43,0,0,1,18.68,39.88Z"/><path class="cls-5" d="M45.85,89.15c-.41,0-.81,0-1.22-.06a13.24,13.24,0,0,1-6.82-2.65,1.5,1.5,0,1,1,1.82-2.39,10.13,10.13,0,0,0,5.28,2,10.35,10.35,0,0,0,9.4-4.35,1.53,1.53,0,0,1,1.07-.63,1.5,1.5,0,0,1,1.18.4l.38.3a5.63,5.63,0,0,0,7.84-1.34,5.77,5.77,0,0,0,1-2.53,1.47,1.47,0,0,1,.57-1,1.53,1.53,0,0,1,1.11-.3,9,9,0,0,0,9.62-6.06,1.5,1.5,0,0,1,2.85.93,12,12,0,0,1-11.48,8.21,8.92,8.92,0,0,1-1.21,2.48,8.63,8.63,0,0,1-11.4,2.46A13.39,13.39,0,0,1,45.85,89.15Z"/><path class="cls-5" d="M40.74,65.71a1.49,1.49,0,0,1-1-.39,46.68,46.68,0,0,1-4.21-4.61,1.5,1.5,0,0,1,2.36-1.86,45,45,0,0,0,3.88,4.26,1.49,1.49,0,0,1,.08,2.12A1.47,1.47,0,0,1,40.74,65.71Z"/><path class="cls-5" d="M55.54,84.11a1.46,1.46,0,0,1-.8-.23,1.49,1.49,0,0,1-.47-2.06h0c.64-1,2.21-4.15,1.77-6.22A1.5,1.5,0,1,1,59,75c.77,3.62-1.86,8-2.16,8.43A1.51,1.51,0,0,1,55.54,84.11Z"/><path class="cls-5" d="M39.37,77.94a11.57,11.57,0,0,1-6.17-1.87A1.51,1.51,0,0,1,32.84,74a1.49,1.49,0,0,1,2.09-.36,8.3,8.3,0,0,0,6.14,1.11,1.5,1.5,0,1,1,.73,2.91A10.09,10.09,0,0,1,39.37,77.94Z"/><path class="cls-5" d="M65.81,60.13A1.5,1.5,0,0,1,65,57.37c3.73-2.43,8.35-.5,8.54-.41a1.5,1.5,0,1,1-1.18,2.76c-.07,0-3.37-1.37-5.73.16A1.43,1.43,0,0,1,65.81,60.13Z"/><path class="cls-1" d="M25,28a9.82,9.82,0,0,1,16.26-7.72A16.95,16.95,0,1,1,70.51,36.07a10.19,10.19,0,0,1-3.26,18,11.84,11.84,0,0,1,.21,2.25,12.26,12.26,0,0,1-23.09,5.75,8.39,8.39,0,0,1-12.31-7.4,7,7,0,0,1,0-.81A13.91,13.91,0,0,1,25,28Z"/><g class="cls-2"><path class="cls-3" d="M49.87,62.07a8.31,8.31,0,0,1-3.93,1,7.17,7.17,0,0,1-1-.07,12.24,12.24,0,0,0,10.3,5.62,12.37,12.37,0,0,0,2.74-.32A12.26,12.26,0,0,1,49.87,62.07Z"/><path class="cls-3" d="M46.74,20.25a16.77,16.77,0,0,1,7.69-9.62,17,17,0,0,1,5.78-2A16.91,16.91,0,0,0,42.12,18,9.87,9.87,0,0,1,46.74,20.25Z"/><path class="cls-3" d="M37.56,54.67a7,7,0,0,1,0-.81A13.91,13.91,0,0,1,30.48,28a9.77,9.77,0,0,1,4.89-8.81,9.88,9.88,0,0,1,2.15-.92A9.8,9.8,0,0,0,25,28a13.91,13.91,0,0,0,7.13,25.89,7,7,0,0,0,0,.81,8.37,8.37,0,0,0,11.13,7.9A8.38,8.38,0,0,1,37.56,54.67Z"/></g><path class="cls-5" d="M55.2,70.09A13.7,13.7,0,0,1,43.76,64a9.89,9.89,0,0,1-13.18-8.68,15.41,15.41,0,0,1-7.1-28.15,11.31,11.31,0,0,1,17-9.24,18.28,18.28,0,0,1,7.67-8.57c.27-.16.54-.31.82-.45a1.51,1.51,0,0,1,2,.65,1.5,1.5,0,0,1-.65,2l-.69.38a15.25,15.25,0,0,0-7,8.77,1.5,1.5,0,0,1-1,1,1.54,1.54,0,0,1-1.4-.31,8.31,8.31,0,0,0-13.77,6.53,1.49,1.49,0,0,1-.74,1.34A12.41,12.41,0,0,0,32,52.36h.07a1.53,1.53,0,0,1,1.13.51,1.48,1.48,0,0,1,.36,1.19,4.08,4.08,0,0,0,0,.61,6.9,6.9,0,0,0,10.11,6.08,1.46,1.46,0,0,1,1.14-.11,1.5,1.5,0,0,1,.89.73,10.76,10.76,0,0,0,20.26-5,10.51,10.51,0,0,0-.18-2,1.48,1.48,0,0,1,1.06-1.73,8.69,8.69,0,0,0,2.78-15.35,1.5,1.5,0,0,1-.27-2.16,15.47,15.47,0,0,0-7.41-24.59,1.5,1.5,0,1,1,.88-2.87,18.47,18.47,0,0,1,9.74,28.18,11.58,11.58,0,0,1,3.59,8.44,11.72,11.72,0,0,1-7.24,10.81c0,.4,0,.81,0,1.23A13.78,13.78,0,0,1,55.2,70.09Z"/><path class="cls-5" d="M56,10.5a1.36,1.36,0,0,1-.29,0l-.28-.08-.26-.14a2.11,2.11,0,0,1-.23-.19A1.5,1.5,0,0,1,54.48,9a1.52,1.52,0,0,1,.44-1.06,1.55,1.55,0,0,1,2.12,0A1.52,1.52,0,0,1,57.48,9,1.5,1.5,0,0,1,57,10.06a2.11,2.11,0,0,1-.23.19l-.26.14-.28.08A1.36,1.36,0,0,1,56,10.5Z"/><path class="cls-5" d="M39.73,28.65h-.2A1.5,1.5,0,0,1,38.24,27a53.32,53.32,0,0,1,1.56-7.13,1.5,1.5,0,1,1,2.88.85,52.82,52.82,0,0,0-1.47,6.66A1.5,1.5,0,0,1,39.73,28.65Z"/><path class="cls-5" d="M32.11,55.36a1.5,1.5,0,0,1-.08-3c1.45-.08,5.6-.71,7.35-2.61a1.5,1.5,0,0,1,2.2,2c-2.88,3.12-8.73,3.53-9.39,3.57Z"/><path class="cls-5" d="M28.7,37.45a1.5,1.5,0,0,1-1-.36A12.94,12.94,0,0,1,23.48,28a1.5,1.5,0,0,1,1.5-1.5h0A1.5,1.5,0,0,1,26.48,28h0a10,10,0,0,0,3.2,6.85,1.5,1.5,0,0,1,.15,2.12A1.49,1.49,0,0,1,28.7,37.45ZM26.48,28h0Z"/><path class="cls-5" d="M67.25,55.57a1.51,1.51,0,0,1-1.47-1.18c0-.07-1-4.3-4.21-5.58A1.5,1.5,0,1,1,62.68,46c4.73,1.88,6,7.49,6,7.73a1.49,1.49,0,0,1-1.15,1.78A1.63,1.63,0,0,1,67.25,55.57Z"/><path class="cls-5" d="M64.15,27.66a1.51,1.51,0,0,1-1.5-1.35c-.65-6.28-5.92-6-6.15-6a1.5,1.5,0,1,1-.18-3c2.9-.18,8.56,1.4,9.32,8.69a1.5,1.5,0,0,1-1.34,1.65Z"/><path class="cls-4" d="M24.89,78.32l-4.3-14.63a5.1,5.1,0,0,1,3.69-6.41l14.14-3.44s3-16.53,11.86-24.4a3.16,3.16,0,0,1,4.92,1h0A6.23,6.23,0,0,1,54.57,37a31.21,31.21,0,0,0-3.43,5.36,2.51,2.51,0,0,0,3.87,3c5.51-4.51,14.73-12,19.7-15.46a3.87,3.87,0,0,1,5.46,1l1.5,2.26L67.27,45.57l18.1-15.46a3.07,3.07,0,0,1,4.2.25h0a3.06,3.06,0,0,1-.16,4.34L72.13,50.76l16.5-15.33,1.86,2.28A4.66,4.66,0,0,1,90,44.17L76.71,56l7.61-6.87,1.29,1.73a5.47,5.47,0,0,1-.93,7.53L72,69.22a20.61,20.61,0,0,1-8.12,4.07,18.12,18.12,0,0,1-7.21.09c-4.49-.75-17.34,4.75-24.7,8.14A5.1,5.1,0,0,1,24.89,78.32Z"/><g class="cls-2"><path class="cls-3" d="M54.87,30.55S45,41,39.06,61.29C39.06,61.29,44.53,22.81,54.87,30.55Z"/></g><path class="cls-5" d="M30.23,83.93a6.61,6.61,0,0,1-6.34-4.74l-.54-1.86a1.49,1.49,0,0,1,1-1.86,1.51,1.51,0,0,1,1.87,1l.54,1.85a3.6,3.6,0,0,0,5,2.26c9.1-4.19,20.92-9,25.57-8.26a16.56,16.56,0,0,0,6.61-.06,19.2,19.2,0,0,0,7.53-3.78L84.16,57.71a4,4,0,0,0,.69-5.49l-.28-.37-6.41,5.73a1.5,1.5,0,0,1-2-2.23l7.61-6.86a1.72,1.72,0,0,1,.32-.23l5.34-4.77a3.16,3.16,0,0,0,.36-4.39l-.86-1L73.6,52.31a1.5,1.5,0,0,1-2-2.2l0,0L88.05,34.78l.07-.06.72-.67a1.56,1.56,0,0,0-2.06-2.34L68.69,47.15a1.5,1.5,0,1,1-2-2.27L80.13,33.36l-.77-1.15a2.35,2.35,0,0,0-1.55-1,2.32,2.32,0,0,0-1.79.39C71,35.09,61.59,42.73,56.41,47a4,4,0,0,1-5,0,3.91,3.91,0,0,1-1.14-4.86,33.32,33.32,0,0,1,3.59-5.63,4.72,4.72,0,0,0,.48-5,1.65,1.65,0,0,0-1.19-.91,1.63,1.63,0,0,0-1.39.37c-8.38,7.45-11.35,23.39-11.38,23.55a1.5,1.5,0,0,1-1.12,1.19L25.08,59.19a3.61,3.61,0,0,0-2.61,4.52l2,6.92a1.5,1.5,0,1,1-2.87.85l-2-6.92a6.62,6.62,0,0,1,4.78-8.29l13.21-3.22c.8-3.73,4.16-17.18,12.15-24.29A4.66,4.66,0,0,1,57,30.22a7.76,7.76,0,0,1-.79,8.13,29.44,29.44,0,0,0-3.26,5.1.93.93,0,0,0,.28,1.2,1,1,0,0,0,1.29,0c5.21-4.27,14.72-12,19.78-15.53a5.36,5.36,0,0,1,7.57,1.43l.6.9,2.38-2A4.56,4.56,0,0,1,91.12,36l1,1.19a6.14,6.14,0,0,1-.69,8.54l-4.59,4.1.43.58A7,7,0,0,1,86.08,60L73.36,70.81a22.08,22.08,0,0,1-8.73,4.38,19.56,19.56,0,0,1-7.87.1c-2.89-.48-11.8,2.52-23.77,8A6.52,6.52,0,0,1,30.23,83.93Z"/><path class="cls-5" d="M34.22,47.24a1.51,1.51,0,0,1-1.5-1.38c-.48-6,4.28-12.46,4.48-12.73a1.5,1.5,0,0,1,2.41,1.78c0,.06-4.29,5.86-3.9,10.71a1.49,1.49,0,0,1-1.37,1.61Z"/><path class="cls-5" d="M42.74,66.46a1.48,1.48,0,0,1-.7-.17c-6.64-3.46-4.72-12-4.64-12.35a1.5,1.5,0,0,1,2.92.69h0c-.06.27-1.46,6.62,3.11,9a1.5,1.5,0,0,1-.69,2.83Z"/><g class="cls-6"><path class="cls-5" d="M25.33,78.76l14.46-4.51a39.19,39.19,0,0,0,5-2c3.92-1.83,12.5-5.19,17.31-2.3l5.46,2.61-7.3,1.53-4.74-.37L31,82.43S26.45,81.49,25.33,78.76Z"/></g><g class="cls-6"><polygon class="cls-5" points="7.29 59.78 27.92 53.86 32.75 54.29 21.89 58.63 21.19 62.45 11.89 65.26 7.29 59.78"/></g><circle class="cls-1" cx="15.68" cy="17.85" r="5.14"/><g class="cls-2"><path class="cls-3" d="M15.68,12.7a5.14,5.14,0,0,0-2.52,9.63,5.08,5.08,0,0,1-.66-2.51,5.14,5.14,0,0,1,7.66-4.49A5.14,5.14,0,0,0,15.68,12.7Z"/></g><path class="cls-5" d="M15.68,24.49a6.65,6.65,0,1,1,6.64-6.64A6.65,6.65,0,0,1,15.68,24.49Zm0-10.29a3.65,3.65,0,1,0,3.64,3.65A3.66,3.66,0,0,0,15.68,14.2Z"/></g></svg>