<?xml version="1.0" ?><svg height="128" viewBox="0 0 128 128" width="128" xmlns="http://www.w3.org/2000/svg"><defs><style>.cls-1{fill:#ffc960;}.cls-2{fill:#79c651;}.cls-3,.cls-5{fill:none;stroke:#252d32;stroke-linecap:round;stroke-linejoin:round;stroke-width:3px;}.cls-4{fill:#252d32;}.cls-5{stroke-dasharray:4 6;}</style></defs><title/><g id="Icons"><path class="cls-1" d="M95.38,83.64c.25,4.85-2,9.06-5.8,12.85l-6.41-6.44L66.92,91.13l-1.09-6.46L55,82.52V81.45l-9.58-3.22L36.88,92a14.6,14.6,0,0,1-2.07-9.16C27.69,87,22,93.35,22,105.1V118h85V101.88C106.37,93.27,101.72,87.57,95.38,83.64Z"/><path class="cls-2" d="M69.44,59.74c-3,8.44-6.78,14.93-12.9,16.12l-2.15,6.45,10.75,3.23,1.08,5.37,16.12-1.07-1.08-8.6,4.31-11.83Z"/><path class="cls-3" d="M46.59,54.91a22,22,0,0,1-2.09-9.1v-7.4s13.34-5.33,20.16-14.86C71.48,32.12,84.5,38.41,84.5,38.41v7.4a23.1,23.1,0,0,1-3,11.69"/><path class="cls-3" d="M91.11,69.88a105.62,105.62,0,0,1,3.15,11.56c1.1,5.73-1.21,10.6-5.5,14.91,0,0-7.11-6.51-7.11-11.76s4.21-14.71,4.21-14.71"/><path class="cls-3" d="M29.87,87.05C25.13,91.15,21.5,97.27,21.5,107V117.5h86V107c0-8.88-3-14.75-7.12-18.83"/><path class="cls-3" d="M66.75,45.67c0-3.43,2.34-5.17,4-5.17H75.5"/><line class="cls-3" x1="57.5" x2="53.5" y1="40.5" y2="40.5"/><path class="cls-4" d="M55.21,44.59a2,2,0,1,0,2,2A2,2,0,0,0,55.21,44.59Z"/><path class="cls-4" d="M73.69,44.59a2,2,0,1,0,2,2A2,2,0,0,0,73.69,44.59Z"/><line class="cls-3" x1="87.5" x2="87.5" y1="107.5" y2="116.5"/><line class="cls-3" x1="87.5" x2="92.5" y1="69.5" y2="69.5"/><path class="cls-3" d="M38.43,58.07a14.8,14.8,0,0,1-3.15-5.25c-1.05-3.15,1-6.31,1-6.31,1.63-6.6-1-7.92,0-15.77C37.5,21.17,44.32,6.29,64,9.82"/><path class="cls-3" d="M37.38,69.88a105.62,105.62,0,0,0-3.15,11.56,14.23,14.23,0,0,0,1.57,9.77"/><path class="cls-3" d="M35.28,55.16s-3.16,3.16-2.11,6.31,5.26,6.3,5.26,6.3"/><path class="cls-3" d="M89.71,58.07a14.8,14.8,0,0,0,3.15-5.25c1-3.15-1-6.31-1-6.31-1.63-6.6,1-7.92,0-15.77-1.17-9.57-8-24.45-27.67-20.92"/><path class="cls-3" d="M92.86,55.16S96,58.32,95,61.47s-5.25,6.3-5.25,6.3"/><line class="cls-3" x1="41.5" x2="35.5" y1="69.5" y2="69.5"/><path class="cls-3" d="M81.5,57.5S79.7,63.57,86.15,69"/><path class="cls-3" d="M43.34,116.2c2-7,13.3-40,13.3-40s5.22-.58,8.93-8c2.54-5,3-6.89,3.24-9s-2.13-6.63-2.13-6.63c-1.38-1.58-3.1-1.55-4.82-.35a40.22,40.22,0,0,0-5.35,4.08c-.59.67-2.42,6.86-2.42,6.86"/><path class="cls-3" d="M49.21,60.82c-1.14,1.65-.4,10.46-.4,10.46s-13.34,22.73-22.4,38"/><line class="cls-3" x1="83.95" x2="69.98" y1="68.87" y2="60.27"/><polyline class="cls-3" points="55.83 82.85 65.5 85 65.5 91.45 82.7 89.3"/><line class="cls-3" x1="65.5" x2="65.5" y1="78.5" y2="85.5"/><line class="cls-3" x1="72.13" x2="81.8" y1="72.1" y2="81.77"/><path class="cls-5" d="M100.76,23.21a59.52,59.52,0,0,1,14,77.86"/><path class="cls-5" d="M11.78,98.54A59.54,59.54,0,0,1,29.16,21.76"/><path class="cls-2" d="M111.85,55.83c3,1.9,3.67,5,2.51,6.65-1.52,2.12-4.93,2.26-7-2.49-1.89-4.37-6.55-6.31-6.55-6.31S107.32,53,111.85,55.83Z"/><path class="cls-2" d="M13.71,68.32C9.86,71.2,9.42,76.12,11.55,78c2.75,2.42,7.52,2,9.39-4.26a22.6,22.6,0,0,1,7-10.15S19.26,64.16,13.71,68.32Z"/></g></svg>