<?xml version="1.0" ?><!DOCTYPE svg  PUBLIC '-//W3C//DTD SVG 1.1//EN'  'http://www.w3.org/Graphics/SVG/1.1/DTD/svg11.dtd'><svg enable-background="new 0 0 64 64" height="64px" version="1.1" viewBox="0 0 64 64" width="64px" xml:space="preserve" xmlns="http://www.w3.org/2000/svg" xmlns:xlink="http://www.w3.org/1999/xlink"><g id="Cough_x2C__coughing_x2C__flu_x2C__infection_x2C__sick"><g id="fever_x2C__sick_1_"><g id="XMLID_742_"><g id="creative_idea_1_"><g id="Public_Relations_2_"><rect fill="#37474F" height="4.983" transform="matrix(0.9828 0.1846 -0.1846 0.9828 10.9694 -4.5952)" width="1" x="29.658" y="54.109"/><path d="M8.856,59.153l-0.979-0.207c0.073-0.347,0.21-0.915,0.385-1.643c0.9-3.753,3.293-13.724,1.992-16.046       l-0.123-0.219c-2.256-4.021-5.666-10.097-5.07-18.252c0.381-5.218,2.662-9.882,6.423-13.132       c3.796-3.281,8.834-4.875,14.175-4.482c12.105,0.885,19.407,8.563,18.604,19.562l-0.416,3.219l4.015,9.746       c0.183,0.5,0.103,1.029-0.206,1.437c-0.307,0.407-0.785,0.635-1.306,0.591l-4.206-0.307c-0.048,0.773-0.09,2.307,0.227,3.338       l-0.384,0.638l-5.763,1.094l4.541,1.543l0.18,0.839c-0.591,0.55-0.934,1.776-0.991,3.544c-0.035,1.039-0.515,2.006-1.316,2.653       c-0.787,0.636-1.809,0.895-2.806,0.716l-5.332-0.961l0.178-0.984l5.332,0.961c0.721,0.132,1.432-0.05,2-0.51       c0.575-0.464,0.92-1.16,0.944-1.908c0.053-1.6,0.328-2.816,0.82-3.631l-5.668-1.927l0.067-0.965l7.108-1.35       c-0.312-1.58-0.104-3.586-0.094-3.681l0.533-0.445l4.701,0.344c0.181,0.012,0.332-0.06,0.437-0.197       c0.104-0.138,0.13-0.31,0.071-0.472l-4.058-9.849l-0.034-0.254l0.43-3.323c0.602-8.243-3.725-17.444-17.681-18.464       c-5.092-0.371-9.856,1.135-13.448,4.241C8.58,13.486,6.421,17.907,6.06,22.859c-0.574,7.855,2.747,13.773,4.944,17.69       l0.124,0.219c1.314,2.347-0.22,9.793-1.894,16.768C9.063,58.252,8.929,58.812,8.856,59.153z" fill="#37474F"/></g><path d="M32.062,53.113l-8.466-1.616c-2.971-0.542-4.956-3.405-4.423-6.382l0.091-0.506l0.984,0.177      l-0.091,0.506c-0.437,2.436,1.188,4.778,3.622,5.222l8.47,1.617L32.062,53.113z" fill="#37474F"/></g><polygon fill="#37474F" points="40.882,29.293 36.394,28.965 36.466,27.968 38.999,28.153 35.381,25.822 35.922,24.981      41.188,28.375    "/></g></g><g><rect fill="#37474F" height="8.566" transform="matrix(0.3009 0.9536 -0.9536 0.3009 75.7177 -19.8765)" width="0.999" x="50.917" y="37.425"/></g><g><rect fill="#37474F" height="1" transform="matrix(0.9344 0.3561 -0.3561 0.9344 20.7905 -15.2539)" width="7.982" x="47.832" y="48.338"/></g><g><rect fill="#37474F" height="1" transform="matrix(0.6436 0.7654 -0.7654 0.6436 58.2799 -16.905)" width="9.452" x="42.566" y="53.625"/></g><rect fill="#37474F" height="1" id="XMLID_752_" width="1" x="52" y="44"/><rect fill="#37474F" height="1" id="XMLID_753_" width="1" x="52" y="59"/><rect fill="#37474F" height="1" id="XMLID_754_" width="1" x="54" y="55"/><rect fill="#37474F" height="1" id="XMLID_755_" width="1" x="55" y="57"/><rect fill="#37474F" height="1" id="XMLID_756_" width="1" x="57" y="51"/><rect fill="#37474F" height="1" id="XMLID_757_" width="1" x="57" y="42"/><rect fill="#37474F" height="1" id="XMLID_758_" width="1" x="54" y="45"/></g></svg>