<?xml version="1.0" ?><svg height="128" viewBox="0 0 128 128" width="128" xmlns="http://www.w3.org/2000/svg"><defs><style>.cls-1{fill:#79c651;}.cls-2,.cls-3{fill:none;stroke-linecap:round;stroke-linejoin:round;stroke-width:3px;}.cls-2{stroke:#ffc960;}.cls-3{stroke:#252d32;}.cls-4{fill:#ffc960;}</style></defs><title/><g id="Icons"><path class="cls-1" d="M54.83,107a30.2,30.2,0,0,1-7.71,8.18,4.74,4.74,0,0,0,2.68.82h58.4a4.8,4.8,0,0,0,4.8-4.8V107Z"/><line class="cls-2" x1="78.89" x2="83.38" y1="29.21" y2="27.96"/><line class="cls-2" x1="64.28" x2="71.38" y1="32.71" y2="30.74"/><line class="cls-2" x1="79.5" x2="83.5" y1="38.5" y2="38.5"/><line class="cls-2" x1="64.5" x2="71.5" y1="38.5" y2="38.5"/><line class="cls-2" x1="77.69" x2="81.48" y1="48.49" y2="49.91"/><line class="cls-2" x1="64.28" x2="70.74" y1="44.21" y2="46.63"/><path class="cls-1" d="M50.8,12h57.4a4.8,4.8,0,0,1,4.8,4.8V21H46V16.8A4.8,4.8,0,0,1,50.8,12Z"/><path class="cls-3" d="M113.5,37.5V16.71a5.21,5.21,0,0,0-5.21-5.21H50.71a5.21,5.21,0,0,0-5.21,5.21V25.5"/><path class="cls-3" d="M46.5,116.5h61.79a5.21,5.21,0,0,0,5.21-5.21V68.5"/><path class="cls-4" d="M14.36,79c-2.81,5.36-4.2,10-4.19,13.68,0,7.71,8.92,21.89,16.21,24.32H44.62c7.29-2.43,16.2-16.61,16.21-24.32,0-3.72-1.38-8.32-4.19-13.68Z"/><path class="cls-3" d="M42.5,59.5c12.19,14.14,18,25.39,18,33s-8.81,21.6-16,24h-18c-7.19-2.4-16-16.39-16-24s5.81-18.86,18-33"/><path class="cls-3" d="M63,57.4s-11.76-1-15-12.11"/><line class="cls-3" x1="35.5" x2="35.5" y1="60.5" y2="74.5"/><rect class="cls-3" height="8" rx="2.96" width="18" x="26.5" y="51.5"/><line class="cls-3" x1="29.5" x2="29.5" y1="50.5" y2="46.5"/><line class="cls-3" x1="41.5" x2="41.5" y1="46.5" y2="50.5"/><path class="cls-3" d="M43.5,45.5h-14a7,7,0,0,1,0-14h14a7,7,0,0,1,0,14Z"/><polyline class="cls-3" points="51.5 35.5 57.5 35.5 57.5 41.5 51.5 41.5"/><line class="cls-3" x1="6.5" x2="122.5" y1="116.5" y2="116.5"/><path class="cls-3" d="M113.07,44.32l1.69,3.1a9.87,9.87,0,0,0,3.87,3.87l3.1,1.69-3.1,1.7a9.87,9.87,0,0,0-3.87,3.87l-1.69,3.1-1.7-3.1a9.91,9.91,0,0,0-3.86-3.87L104.4,53l3.11-1.69a9.91,9.91,0,0,0,3.86-3.87Z"/><path class="cls-3" d="M86.07,66.23l2.34,4.28a13.36,13.36,0,0,0,5.31,5.31L98,78.16,93.72,80.5a13.43,13.43,0,0,0-5.31,5.31l-2.34,4.28-2.34-4.28a13.36,13.36,0,0,0-5.31-5.31l-4.27-2.34,4.27-2.34a13.3,13.3,0,0,0,5.31-5.31Z"/></g></svg>